<svg xmlns="http://www.w3.org/2000/svg" viewBox="0 0 512 512"><path d="M401.084 381.107h.013c0-.309-.009-.153-.013 0z"/><path d="M427.773 453.16a40.704 40.704 0 0 0 13.052-29.819V342.24a7.517 7.517 0 0 0-7.518-7.518 32.002 32.002 0 0 0-17.12 4.947v-60.203a7.517 7.517 0 0 0-7.518-7.518 7.517 7.517 0 0 0-7.518 7.518l-.055 101.641c-.017.299-.017.151-.013 0H110.928V114.702a7.517 7.517 0 0 0-7.518-7.518 7.517 7.517 0 0 0-7.518 7.518V339.72a32.015 32.015 0 0 0-17.2-4.998 7.517 7.517 0 0 0-7.518 7.518v81.101a40.698 40.698 0 0 0 13.052 29.819l6.369 5.881v10.931h-1.492a7.517 7.517 0 0 0-7.518 7.518v26.993a7.517 7.517 0 0 0 7.518 7.518h107.064a7.517 7.517 0 0 0 7.518-7.518V477.49c0-4.098-3.279-7.422-7.355-7.51v-11.567l8.153-10.071a53.577 53.577 0 0 0 11.9-33.611v-18.588h79.237v18.588a53.58 53.58 0 0 0 11.9 33.61l8.153 10.072v11.567a7.512 7.512 0 0 0-7.354 7.51v26.993a7.517 7.517 0 0 0 7.518 7.518h107.062a7.517 7.517 0 0 0 7.518-7.518V477.49a7.517 7.517 0 0 0-7.518-7.518h-1.493v-10.93l6.367-5.882zm-239.124 43.805H96.621v-11.958h92.027v11.958zm12.698-82.234a38.506 38.506 0 0 1-8.551 24.151l-9.828 12.139a7.514 7.514 0 0 0-1.675 4.73v14.221H105.63v-14.221c0-2.098-.876-4.1-2.417-5.523l-8.787-8.115a25.623 25.623 0 0 1-8.217-18.773v-71.85c5.713 2.793 9.658 8.663 9.658 15.44v27.455c0 3.83 2.891 7.049 6.697 7.473.126.014 12.708 1.464 24.913 7.12 14.755 6.834 22.235 16.537 22.235 28.838a7.517 7.517 0 0 0 7.518 7.518 7.517 7.517 0 0 0 7.518-7.518c0-17.899-10.108-32.268-29.263-41.673h65.861v18.588zm214.032 82.234h-92.027v-11.958h92.026v11.958zm2.195-54.852l-8.787 8.114a7.514 7.514 0 0 0-2.418 5.523v14.221h-75.663V455.75a7.514 7.514 0 0 0-1.675-4.73l-9.828-12.139a38.503 38.503 0 0 1-8.55-24.151v-18.588h65.856c-19.153 9.405-29.259 23.776-29.259 41.673a7.517 7.517 0 0 0 7.518 7.518 7.517 7.517 0 0 0 7.518-7.518c0-12.301 7.481-22.003 22.235-28.838 12.207-5.655 24.788-7.106 24.903-7.119a7.518 7.518 0 0 0 6.707-7.474v-4.887c.033-.287.055-.577.055-.874v-23.036c.482-6.203 4.27-11.491 9.603-14.097v71.85a25.622 25.622 0 0 1-8.215 18.773zM408.67 0H103.411a7.517 7.517 0 0 0-7.518 7.518v82.126a7.517 7.517 0 0 0 7.518 7.518 7.517 7.517 0 0 0 7.518-7.518V15.035h290.224v239.372a7.517 7.517 0 0 0 7.518 7.518 7.517 7.517 0 0 0 7.518-7.518V7.518A7.52 7.52 0 0 0 408.67 0z"/><path d="M340.719 42.942H173.59a7.517 7.517 0 0 0-7.518 7.518v182.601a7.517 7.517 0 0 0 7.518 7.518h167.13a7.517 7.517 0 0 0 7.518-7.518V50.459a7.518 7.518 0 0 0-7.519-7.517zM203.284 225.543v-12.071c0-20.999 14.309-39.692 34.002-47.547l4.604 13.068-7.458 25.929a7.516 7.516 0 0 0 2.15 7.623l14.201 12.998h-47.499zm54.147-78.569c-.182-.004-.365-.014-.547-.016a3.537 3.537 0 0 0-.206 0c-.182.002-.365.012-.547.016-11.631-.348-20.993-9.895-20.993-21.61v-5.509h.002c12.343-1.56 20.837-6.762 26.219-11.57 3.692 4.495 9.246 9.201 17.067 11.131v5.948c-.001 11.715-9.363 21.262-20.995 21.61zm4.186 15.32l-3.152 8.95H255.1l-3.153-8.95c.113-.012.228-.02.341-.031a53.59 53.59 0 0 1 1.994-.169c.582-.036 1.17-.054 1.756-.071.249.005.494.019.744.019s.495-.014.744-.019c.587.017 1.174.035 1.757.071.661.042 1.32.101 1.981.168.116.011.235.02.353.032zm16.771-58.951c-6.156-3.396-8.867-10.062-9.001-10.4a7.514 7.514 0 0 0-6.532-4.837 7.514 7.514 0 0 0-7.115 3.931c-.062.115-5.585 10.012-20.602 12.632v-4.398c0-11.927 9.7-21.632 21.624-21.642 11.928.01 21.627 9.714 21.627 21.642v3.072zm-28.22 101.256l5.269-18.32h2.689l5.269 18.32-6.615 6.053-6.612-6.053zm60.113 20.944h-47.499l14.202-12.999a7.513 7.513 0 0 0 2.149-7.623l-7.458-25.929 4.604-13.068c19.693 7.854 34.002 26.547 34.002 47.547v12.072zm22.921 0h-7.884v-12.071c0-27.132-18.265-51.282-43.403-61.43 7.101-6.693 11.546-16.173 11.546-26.678v-25.093c0-20.224-16.454-36.678-36.679-36.678l-.019.001-.018-.001c-20.224 0-36.678 16.454-36.678 36.678v12.547c0 .249.014.494.037.738v11.809c0 10.505 4.445 19.985 11.546 26.678-25.138 10.148-43.402 34.299-43.402 61.431v12.071h-7.141V57.977h152.095v167.566zm7.517 74.775H172.744a7.517 7.517 0 0 0-7.518 7.518 7.517 7.517 0 0 0 7.518 7.518h167.975a7.517 7.517 0 0 0 7.518-7.518 7.517 7.517 0 0 0-7.518-7.518zm0-35.384H172.744a7.517 7.517 0 0 0-7.518 7.518 7.517 7.517 0 0 0 7.518 7.518h167.975a7.517 7.517 0 0 0 7.518-7.518 7.517 7.517 0 0 0-7.518-7.518zm-52.16 70.768H172.744c-4.153 0-7.518 3.365-7.518 7.518s3.365 7.518 7.518 7.518h115.815c4.153 0 7.518-3.365 7.518-7.518s-3.365-7.518-7.518-7.518z"/></svg>