<svg xmlns="http://www.w3.org/2000/svg" viewBox="0 0 512 512"><path d="M96 306c-5.52 0-10 4.48-10 10s4.48 10 10 10 10-4.48 10-10-4.48-10-10-10zm220-40h-10v-40h10c5.514 0 10 4.486 10 10 0 5.522 4.477 10 10 10s10-4.478 10-10c0-16.542-13.458-30-30-30h-10v-10c0-5.522-4.477-10-10-10s-10 4.478-10 10v10h-10c-16.542 0-30 13.458-30 30v20c0 16.542 13.458 30 30 30h10v40h-10c-5.514 0-10-4.486-10-10 0-5.522-4.477-10-10-10s-10 4.478-10 10c0 16.542 13.458 30 30 30h10v10c0 5.522 4.477 10 10 10s10-4.478 10-10v-10h10c16.542 0 30-13.458 30-30v-20c0-16.542-13.458-30-30-30zm-30 0h-10c-5.514 0-10-4.486-10-10v-20c0-5.514 4.486-10 10-10h10v40zm40 50c0 5.514-4.486 10-10 10h-10v-40h10c5.514 0 10 4.486 10 10v20z"/><path d="M464.946 426.47c.026-.053.043-.109.068-.162.135-.282.257-.571.365-.866.032-.086.065-.171.094-.258a9.937 9.937 0 0 0 .314-1.129c.079-.379.133-.767.168-1.161.01-.113.011-.226.017-.339.01-.185.028-.368.028-.555V30c0-16.542-13.458-30-30-30H116C77.402 0 46 31.402 46 70v392c0 27.57 22.43 50 50 50h360a10.001 10.001 0 0 0 8.946-14.47l-6.583-13.175c-7.003-13.998-7.003-30.713.002-44.716l6.581-13.169zM66 70c0-27.57 22.43-50 50-50h8.33v392H96c-10.965 0-21.389 3.516-30 10.004V70zm373.841 422H96c-16.542 0-30-13.458-30-30.01 0-8.002 3.122-15.53 8.791-21.199C80.46 435.122 87.993 432 96 432h343.841c-8.959 18.894-8.958 41.111 0 60zM446 412H144.33V20H436c5.514 0 10 4.486 10 10v382z"/><path d="M96 103c-5.523 0-10 4.478-10 10v163c0 5.522 4.477 10 10 10s10-4.478 10-10V113c0-5.522-4.477-10-10-10zm300-43H196c-5.523 0-10 4.478-10 10v83c0 5.522 4.477 10 10 10h200c5.523 0 10-4.478 10-10V70c0-5.522-4.477-10-10-10zm-10 83H206V80h180v63z"/><path d="M356 103H236c-5.523 0-10 4.478-10 10s4.477 10 10 10h120c5.523 0 10-4.478 10-10s-4.477-10-10-10z"/></svg>