<svg xmlns="http://www.w3.org/2000/svg" viewBox="0 0 512 512"><path d="M504.396 87.657h-79.583a7.605 7.605 0 0 0 0 15.208h59.891L256 310.442 27.296 102.865h362.031a7.605 7.605 0 0 0 0-15.208H7.604A7.605 7.605 0 0 0 0 95.261v321.477a7.605 7.605 0 0 0 7.604 7.604h496.792a7.605 7.605 0 0 0 7.604-7.604V95.261c0-4.2-3.405-7.604-7.604-7.604zM27.355 409.134l53.268-48.342a7.604 7.604 0 0 0-10.221-11.261l-55.195 50.09v-287.19l158.217 143.601-77.974 70.766a7.604 7.604 0 0 0 10.221 11.261l79.068-71.757 66.149 60.039c1.451 1.317 3.281 1.974 5.112 1.974s3.661-.658 5.111-1.974l66.15-60.04 157.385 142.833H27.355zm469.437-9.513L338.575 256.032l158.217-143.601v287.19z"/></svg>